<mxfile host="app.diagrams.net" modified="2022-03-12T01:38:05.778Z" agent="5.0 (Macintosh; Intel Mac OS X 10_15_7) AppleWebKit/537.36 (KHTML, like Gecko) Chrome/99.0.4844.51 Safari/537.36" etag="lIjTWbRPX0oxE3aA5ZW6" version="17.1.0" type="github">
  <diagram id="cVXZcsw8-dyuGSdWAtnh" name="Page-1">
    <mxGraphModel dx="1062" dy="803" grid="1" gridSize="10" guides="1" tooltips="1" connect="1" arrows="1" fold="1" page="1" pageScale="1" pageWidth="850" pageHeight="1100" math="0" shadow="0">
      <root>
        <mxCell id="0" />
        <mxCell id="1" parent="0" />
        <mxCell id="Oe-Sz-bcA0jOp__06KCo-38" value="Natural Hazard Mitigation" style="text;html=1;strokeColor=none;fillColor=none;align=center;verticalAlign=middle;whiteSpace=wrap;rounded=0;" vertex="1" parent="1">
          <mxGeometry x="425" y="231.25" width="105" height="28.75" as="geometry" />
        </mxCell>
        <mxCell id="Oe-Sz-bcA0jOp__06KCo-39" value="Green Infrastructure" style="text;html=1;strokeColor=none;fillColor=none;align=center;verticalAlign=middle;whiteSpace=wrap;rounded=0;" vertex="1" parent="1">
          <mxGeometry x="200" y="265" width="120" height="30" as="geometry" />
        </mxCell>
        <mxCell id="Oe-Sz-bcA0jOp__06KCo-40" value="" style="endArrow=none;dashed=1;html=1;dashPattern=1 3;strokeWidth=2;rounded=0;startArrow=none;entryX=0;entryY=0.75;entryDx=0;entryDy=0;" edge="1" parent="1" source="Oe-Sz-bcA0jOp__06KCo-79" target="Oe-Sz-bcA0jOp__06KCo-38">
          <mxGeometry width="50" height="50" relative="1" as="geometry">
            <mxPoint x="350" y="270" as="sourcePoint" />
            <mxPoint x="430" y="240" as="targetPoint" />
          </mxGeometry>
        </mxCell>
        <mxCell id="Oe-Sz-bcA0jOp__06KCo-42" value="&lt;font face=&quot;helvetica&quot;&gt;Engineering with Nature&lt;/font&gt;" style="text;html=1;strokeColor=none;fillColor=none;align=center;verticalAlign=middle;whiteSpace=wrap;rounded=0;" vertex="1" parent="1">
          <mxGeometry x="210" y="302" width="160" height="30" as="geometry" />
        </mxCell>
        <mxCell id="Oe-Sz-bcA0jOp__06KCo-46" value="Ecosystem-based Hazard Mitigation" style="text;html=1;strokeColor=none;fillColor=none;align=center;verticalAlign=middle;whiteSpace=wrap;rounded=0;" vertex="1" parent="1">
          <mxGeometry x="180" y="222.5" width="140" height="35" as="geometry" />
        </mxCell>
        <mxCell id="Oe-Sz-bcA0jOp__06KCo-47" value="" style="endArrow=none;dashed=1;html=1;dashPattern=1 3;strokeWidth=2;rounded=0;entryX=0.25;entryY=1;entryDx=0;entryDy=0;" edge="1" parent="1" source="Oe-Sz-bcA0jOp__06KCo-87" target="Oe-Sz-bcA0jOp__06KCo-38">
          <mxGeometry width="50" height="50" relative="1" as="geometry">
            <mxPoint x="480" y="300" as="sourcePoint" />
            <mxPoint x="440" y="240" as="targetPoint" />
          </mxGeometry>
        </mxCell>
        <mxCell id="Oe-Sz-bcA0jOp__06KCo-50" value="" style="endArrow=none;dashed=1;html=1;dashPattern=1 3;strokeWidth=2;rounded=0;entryDx=0;entryDy=0;" edge="1" parent="1">
          <mxGeometry width="50" height="50" relative="1" as="geometry">
            <mxPoint x="385" y="275" as="sourcePoint" />
            <mxPoint x="385" y="275" as="targetPoint" />
          </mxGeometry>
        </mxCell>
        <mxCell id="Oe-Sz-bcA0jOp__06KCo-51" value="" style="endArrow=none;dashed=1;html=1;dashPattern=1 3;strokeWidth=2;rounded=0;" edge="1" parent="1">
          <mxGeometry width="50" height="50" relative="1" as="geometry">
            <mxPoint x="310" y="235" as="sourcePoint" />
            <mxPoint x="310" y="235" as="targetPoint" />
          </mxGeometry>
        </mxCell>
        <mxCell id="Oe-Sz-bcA0jOp__06KCo-52" value="" style="endArrow=none;dashed=1;html=1;dashPattern=1 3;strokeWidth=2;rounded=0;startArrow=none;entryX=1;entryY=1;entryDx=0;entryDy=0;" edge="1" parent="1" source="Oe-Sz-bcA0jOp__06KCo-53" target="Oe-Sz-bcA0jOp__06KCo-38">
          <mxGeometry width="50" height="50" relative="1" as="geometry">
            <mxPoint x="560" y="310" as="sourcePoint" />
            <mxPoint x="570" y="250" as="targetPoint" />
          </mxGeometry>
        </mxCell>
        <mxCell id="Oe-Sz-bcA0jOp__06KCo-54" value="&lt;span&gt;Ecosystem Services&lt;/span&gt;" style="text;html=1;strokeColor=none;fillColor=none;align=center;verticalAlign=middle;whiteSpace=wrap;rounded=0;" vertex="1" parent="1">
          <mxGeometry x="590" y="312" width="120" height="30" as="geometry" />
        </mxCell>
        <mxCell id="Oe-Sz-bcA0jOp__06KCo-55" value="Ecosystem-based Disaster Risk Reduction" style="text;html=1;strokeColor=none;fillColor=none;align=center;verticalAlign=middle;whiteSpace=wrap;rounded=0;" vertex="1" parent="1">
          <mxGeometry x="650" y="230" width="150" height="30" as="geometry" />
        </mxCell>
        <mxCell id="Oe-Sz-bcA0jOp__06KCo-53" value="" style="shape=waypoint;sketch=0;fillStyle=solid;size=6;pointerEvents=1;points=[];fillColor=none;resizable=0;rotatable=0;perimeter=centerPerimeter;snapToPoint=1;strokeColor=#97D077;" vertex="1" parent="1">
          <mxGeometry x="570" y="295" width="40" height="40" as="geometry" />
        </mxCell>
        <mxCell id="Oe-Sz-bcA0jOp__06KCo-61" value="" style="endArrow=none;dashed=1;html=1;dashPattern=1 3;strokeWidth=2;rounded=0;entryX=1;entryY=0.75;entryDx=0;entryDy=0;startArrow=none;exitDx=0;exitDy=0;exitX=0.597;exitY=0.547;exitPerimeter=0;" edge="1" parent="1" source="Oe-Sz-bcA0jOp__06KCo-82" target="Oe-Sz-bcA0jOp__06KCo-38">
          <mxGeometry width="50" height="50" relative="1" as="geometry">
            <mxPoint x="620" y="280" as="sourcePoint" />
            <mxPoint x="590" y="250" as="targetPoint" />
          </mxGeometry>
        </mxCell>
        <mxCell id="Oe-Sz-bcA0jOp__06KCo-67" value="" style="endArrow=none;dashed=1;html=1;dashPattern=1 3;strokeWidth=2;rounded=0;startArrow=none;entryX=1;entryY=0;entryDx=0;entryDy=0;" edge="1" parent="1" source="Oe-Sz-bcA0jOp__06KCo-68" target="Oe-Sz-bcA0jOp__06KCo-38">
          <mxGeometry width="50" height="50" relative="1" as="geometry">
            <mxPoint x="660" y="235" as="sourcePoint" />
            <mxPoint x="590" y="228.75" as="targetPoint" />
          </mxGeometry>
        </mxCell>
        <mxCell id="Oe-Sz-bcA0jOp__06KCo-68" value="" style="shape=waypoint;sketch=0;fillStyle=solid;size=6;pointerEvents=1;points=[];fillColor=none;resizable=0;rotatable=0;perimeter=centerPerimeter;snapToPoint=1;strokeColor=#97D077;" vertex="1" parent="1">
          <mxGeometry x="610" y="215" width="40" height="40" as="geometry" />
        </mxCell>
        <mxCell id="Oe-Sz-bcA0jOp__06KCo-79" value="" style="shape=waypoint;sketch=0;fillStyle=solid;size=6;pointerEvents=1;points=[];fillColor=none;resizable=0;rotatable=0;perimeter=centerPerimeter;snapToPoint=1;strokeColor=#97D077;" vertex="1" parent="1">
          <mxGeometry x="300" y="255" width="40" height="40" as="geometry" />
        </mxCell>
        <mxCell id="Oe-Sz-bcA0jOp__06KCo-82" value="" style="shape=waypoint;sketch=0;fillStyle=solid;size=6;pointerEvents=1;points=[];fillColor=none;resizable=0;rotatable=0;perimeter=centerPerimeter;snapToPoint=1;strokeColor=#97D077;" vertex="1" parent="1">
          <mxGeometry x="620" y="265" width="40" height="40" as="geometry" />
        </mxCell>
        <mxCell id="Oe-Sz-bcA0jOp__06KCo-83" value="" style="endArrow=none;dashed=1;html=1;dashPattern=1 3;strokeWidth=2;rounded=0;startArrow=none;entryX=0;entryY=0;entryDx=0;entryDy=0;" edge="1" parent="1" source="Oe-Sz-bcA0jOp__06KCo-48" target="Oe-Sz-bcA0jOp__06KCo-38">
          <mxGeometry width="50" height="50" relative="1" as="geometry">
            <mxPoint x="350" y="240" as="sourcePoint" />
            <mxPoint x="390" y="190" as="targetPoint" />
          </mxGeometry>
        </mxCell>
        <mxCell id="Oe-Sz-bcA0jOp__06KCo-85" value="" style="endArrow=none;dashed=1;html=1;dashPattern=1 3;strokeWidth=2;rounded=0;entryX=0;entryY=1;entryDx=0;entryDy=0;startArrow=none;" edge="1" parent="1" source="Oe-Sz-bcA0jOp__06KCo-78" target="Oe-Sz-bcA0jOp__06KCo-38">
          <mxGeometry width="50" height="50" relative="1" as="geometry">
            <mxPoint x="380" y="310" as="sourcePoint" />
            <mxPoint x="440" y="250" as="targetPoint" />
          </mxGeometry>
        </mxCell>
        <mxCell id="Oe-Sz-bcA0jOp__06KCo-86" value="Nature-based Infrastructure" style="text;html=1;strokeColor=none;fillColor=none;align=center;verticalAlign=middle;whiteSpace=wrap;rounded=0;" vertex="1" parent="1">
          <mxGeometry x="366" y="320.5" width="110" height="35" as="geometry" />
        </mxCell>
        <mxCell id="Oe-Sz-bcA0jOp__06KCo-87" value="" style="shape=waypoint;sketch=0;fillStyle=solid;size=6;pointerEvents=1;points=[];fillColor=none;resizable=0;rotatable=0;perimeter=centerPerimeter;snapToPoint=1;strokeColor=#97D077;" vertex="1" parent="1">
          <mxGeometry x="420" y="297" width="40" height="40" as="geometry" />
        </mxCell>
        <mxCell id="Oe-Sz-bcA0jOp__06KCo-89" value="Climate Change Adaptation" style="text;html=1;strokeColor=none;fillColor=none;align=center;verticalAlign=middle;whiteSpace=wrap;rounded=0;" vertex="1" parent="1">
          <mxGeometry x="643" y="279" width="150" height="30" as="geometry" />
        </mxCell>
        <mxCell id="Oe-Sz-bcA0jOp__06KCo-90" value="" style="endArrow=none;dashed=1;html=1;dashPattern=1 3;strokeWidth=2;rounded=0;startArrow=none;entryX=0.75;entryY=1;entryDx=0;entryDy=0;" edge="1" parent="1" source="Oe-Sz-bcA0jOp__06KCo-93" target="Oe-Sz-bcA0jOp__06KCo-38">
          <mxGeometry width="50" height="50" relative="1" as="geometry">
            <mxPoint x="510" y="323" as="sourcePoint" />
            <mxPoint x="510" y="250" as="targetPoint" />
          </mxGeometry>
        </mxCell>
        <mxCell id="Oe-Sz-bcA0jOp__06KCo-97" style="edgeStyle=orthogonalEdgeStyle;rounded=0;orthogonalLoop=1;jettySize=auto;html=1;exitX=0.5;exitY=1;exitDx=0;exitDy=0;" edge="1" parent="1" source="Oe-Sz-bcA0jOp__06KCo-89" target="Oe-Sz-bcA0jOp__06KCo-89">
          <mxGeometry relative="1" as="geometry" />
        </mxCell>
        <mxCell id="Oe-Sz-bcA0jOp__06KCo-78" value="" style="shape=waypoint;sketch=0;fillStyle=solid;size=6;pointerEvents=1;points=[];fillColor=none;resizable=0;rotatable=0;perimeter=centerPerimeter;snapToPoint=1;strokeColor=#97D077;" vertex="1" parent="1">
          <mxGeometry x="340" y="292" width="40" height="40" as="geometry" />
        </mxCell>
        <mxCell id="Oe-Sz-bcA0jOp__06KCo-48" value="" style="shape=waypoint;sketch=0;fillStyle=solid;size=6;pointerEvents=1;points=[];fillColor=none;resizable=0;rotatable=0;perimeter=centerPerimeter;snapToPoint=1;strokeColor=#97D077;" vertex="1" parent="1">
          <mxGeometry x="310" y="215" width="40" height="40" as="geometry" />
        </mxCell>
        <mxCell id="Oe-Sz-bcA0jOp__06KCo-93" value="" style="shape=waypoint;sketch=0;fillStyle=solid;size=6;pointerEvents=1;points=[];fillColor=none;resizable=0;rotatable=0;perimeter=centerPerimeter;snapToPoint=1;strokeColor=#97D077;" vertex="1" parent="1">
          <mxGeometry x="499" y="297" width="40" height="40" as="geometry" />
        </mxCell>
        <mxCell id="Oe-Sz-bcA0jOp__06KCo-103" style="edgeStyle=orthogonalEdgeStyle;rounded=0;orthogonalLoop=1;jettySize=auto;html=1;exitX=0.5;exitY=1;exitDx=0;exitDy=0;" edge="1" parent="1" source="Oe-Sz-bcA0jOp__06KCo-86" target="Oe-Sz-bcA0jOp__06KCo-86">
          <mxGeometry relative="1" as="geometry" />
        </mxCell>
        <mxCell id="Oe-Sz-bcA0jOp__06KCo-107" value="Nature-based&lt;br&gt;Solutions" style="text;html=1;strokeColor=none;fillColor=none;align=center;verticalAlign=middle;whiteSpace=wrap;rounded=0;" vertex="1" parent="1">
          <mxGeometry x="473" y="318" width="140" height="40" as="geometry" />
        </mxCell>
      </root>
    </mxGraphModel>
  </diagram>
</mxfile>
